<?xml version="1.0" encoding="utf-8"?>
<!-- Generator: Adobe Illustrator 19.2.1, SVG Export Plug-In . SVG Version: 6.00 Build 0)  -->
<svg version="1.1" id="层_1_1_" xmlns="http://www.w3.org/2000/svg" xmlns:xlink="http://www.w3.org/1999/xlink" x="0px" y="0px"
	 viewBox="0 0 158 36" style="enable-background:new 0 0 158 36;" xml:space="preserve">
<style type="text/css">
	.st0{fill:#44BFFB;}
	.st1{fill:#FF920B;}
	.st2{fill:#70DF00;}
	.st3{fill:#FFFFFF;}
	.st4{fill:#ffffff;}
</style>
<g id="形状_26_副本_7_拷贝_22">
	<g>
		<path class="st0" d="M33.1,10.9c-7.7-5.5-14.6-8.5-18.6-9.7C12,0.4,10.1,0.8,8.9,2.5c-1.5,2.1-2,10.9-2.1,15.1
			c-0.1,4.6,0.1,9.3,0.7,13.1c0.8,4.1,4.3,4.4,7.6,3.4c8.1-2.3,16.4-8.9,21-13.3C40,17.2,38.7,14.9,33.1,10.9z"/>
	</g>
</g>
<g id="形状_1_拷贝_20">
	<g>
		<path class="st1" d="M7.1,15.6c0-6,0.6-9.2,1.1-10.9c-2.1-0.5-4-0.4-5,1c-1.2,1.7-2,8.3-2,11.6c0.1,3.6,0.4,7.2,0.9,10.2
			c0.8,3.4,2.5,3.7,5.4,3.1C7.2,28.3,7,24,7.1,15.6z"/>
	</g>
</g>
<g id="形状_28_副本_7_拷贝_21">
	<g>
		<path class="st2" d="M26.5,12.7C15.3,6,8,4.4,8.1,4.4C7,8.2,6.6,14.5,6.6,17.6c0,4.3,0.2,9.2,0.8,12.9c0,0,10.3-1.1,21.8-10.1
			C32.7,17.7,30.7,15.3,26.5,12.7z"/>
	</g>
</g>
<g id="形状_29_副本_7_拷贝_22">
	<g>
		<path class="st3" d="M22.3,16.2l-9.2-5.8c-0.8-0.6-1.5-0.2-1.5,0.8v12.2c0,1.2,0.7,1.7,2,0.7l8.6-5.8C23.1,17.7,23.3,17,22.3,16.2
			z"/>
	</g>
</g>
<g id="腾讯视频_副本_拷贝_4">
	<g>
		<path class="st4" d="M142.7,6.3L142.4,8h5.7c-0.8,1.6-1.7,2.9-2.1,3.2c-0.4,0.1-0.9,0.2-1.3,0.4l0-0.3h-1.9l-2.9,13.2h2l0.1-0.3
			l2.3-10.3c0.4-0.4,0.7-0.6,1-0.7c0.3-0.1,1.1-0.2,1.8-0.2c0,0,0.1,0,0.1,0h3.3c0.7,0,0.7,0.2,0.7,0.6c0,0.1,0,0.2,0,0.3l-2.2,10.7
			h2l2.2-10.3c0.1-0.4,0.2-0.8,0.2-1.2c0-0.6-0.2-1.1-0.6-1.5c-0.4-0.3-1-0.5-1.6-0.5h-2.5c0.2-0.2,0.4-0.5,0.6-0.9
			c0.4-0.6,0.8-1.4,1.1-2.2h5.2l0.1-0.3l0.3-1.4H142.7z M52.7,5.4c-0.5,0-1.6,0.1-2.1,0.3c0-0.1,0-0.2,0-0.3h-2.1l-4.9,22.3
			c-0.1,0.6-0.3,0.8-0.5,0.8h-1l-0.4,1.9h2c0.5,0,1.6-0.3,1.9-2l1.4-6.5H50l-1.3,5.9c-0.1,0.4-0.1,0.7-0.4,0.7H47l-0.4,1.9h1.8
			c0.4,0,1.9,0.2,2.3-1.9l4.6-21C55.6,5.9,53.9,5.4,52.7,5.4z M50.4,20h-3.1l1.2-5.4h3.1L50.4,20z M53.1,7.9l-1,4.8h-3.1L50,7.8
			c0.3-0.3,1.4-0.5,1.7-0.5C52,7.3,53.2,7.5,53.1,7.9z M132.5,16.8l0.1-0.4h-2.1l-0.1,0.2c-0.6,2-1.6,3.6-2.5,4.7
			c-0.9,1.1-1.6,1.8-1.6,1.8l-0.1,0.1l-0.5,2.8l0.6-0.4C126.4,25.7,131.2,22.8,132.5,16.8z M150.6,28.4c-0.8-0.7-2.5-2.5-3.7-5.8
			l-0.1-0.2h-0.3l1.8-8h-2.1l-1.8,7.8c0,0.1-0.2,0.6-0.6,1.3c-0.5,0.8-1.3,1.9-2.5,2.9c-1.2,1-2.4,1.5-3.3,1.8
			c-0.9,0.3-1.4,0.3-1.4,0.3l-0.2,0l-0.6,2l0.5,0c0,0,6-0.3,9.3-5.8c2.3,4.8,4.5,5.8,4.6,5.8l0.3,0.1l0.9-1.6l-0.2-0.2
			C151.1,28.7,150.9,28.6,150.6,28.4z M79.6,10.9l1.7-0.9c0,0-0.9-1.1-1.9-2.7c-0.9-1.5-1-1.9-1-1.9l-2.2,0c0,0,0.8,1.6,1.2,2.3
			C77.8,8.4,79.6,10.9,79.6,10.9z M112.6,22l0.1-0.3l2.9-12.9c0.6-0.6,1.3-0.9,2.1-0.9h4.7c0.1,0,0.1,0,0.1,0c0.5,0,0.7,0.1,0.9,0.2
			c0.2,0.1,0.2,0.3,0.2,0.6c0,0.1,0,0.3-0.1,0.5L120.6,22h2.1l2.9-12.9c0.1-0.3,0.1-0.6,0.1-0.8c0-0.7-0.3-1.2-0.9-1.6
			c-0.6-0.3-1.3-0.5-2.3-0.5c-0.1,0-0.2,0-0.2,0H118c-0.2,0-0.3,0-0.4,0c-0.7,0-1.2,0-1.6,0.2l0-0.3h-1.9L110.4,22L112.6,22
			L112.6,22z M108.3,8.4l0.7-3.1h-2l-0.7,3.3h2L108.3,8.4z M117.5,28.3c0,0,0-0.1,0-0.2l1.8-9.6h-0.9l1.8-9.2h-2.2l-1.9,9.5
			c-0.1,0.2-0.4,1.2-1.2,2.6c-0.8,1.5-2.1,3.3-3.7,4.5c-1.6,1.2-2.9,1.9-3.8,2.3c-0.4,0.2-0.8,0.3-1,0.4c-0.2,0.1-0.3,0.1-0.3,0.1
			l-0.2,0l-0.6,2l0.5-0.1c0,0,6.3-1,10.1-6.6l-0.9,4.2c-0.1,0.3-0.1,0.5-0.1,0.8c0,0.5,0.1,0.9,0.5,1.2c0.3,0.3,0.8,0.4,1.3,0.4h7
			l0.1-0.3l0.3-1.6h-6.2C117.6,28.7,117.5,28.6,117.5,28.3z M94.5,16.4H89l1.7-7.5h-2.2l-1.7,7.5h-5.6l-0.5,1.9h5.6l-2.7,12.2h2.2
			l2.7-12.3H94L94.5,16.4z M140.1,18.3l0.4-0.5l-2.6,0l-2.4,3.2l1.2-5.8l4.3,0l0.4-1.7h-4.6l0.5-2.7h4.4l0.1-0.3l0.3-1.6l-4.4,0
			l0.7-3.5h-2.1l-1.7,8h-2.3l1.3-6.2h-2.1l-1.3,6.2h-3.2l-0.4,1.7h7.9l-1.7,8.2h0.8c-1.7,2.2-3.6,3.5-5,4.2
			c-0.8,0.4-1.5,0.6-1.9,0.8c-0.5,0.1-0.7,0.2-0.7,0.2l-0.2,0l-0.4,1.9l0.4,0c0.1,0,5.7-0.1,10.6-7
			C137.9,21.3,140.1,18.3,140.1,18.3z M108,19.7L108,19.7l2.3,0.1l-0.4-0.5c0,0-0.3-0.4-0.7-1.1c-0.4-0.7-0.8-1.5-1.1-2.4l-0.1-0.2
			l-0.7,0l2.7-3c0,0,1.1-1,1.1-2c0-0.3-0.2-0.7-0.5-0.9c-0.3-0.2-0.8-0.3-1.5-0.3H102l-0.4,1.8h7l-8,8.7l-0.9,3.6l4.7-4.9l-2.7,12
			h2.2l0.1-0.3l2.7-12.6C107.4,19.1,108,19.6,108,19.7z M95.3,28.2l3.9-18.4C99.4,8,99.9,6,96.2,6H85.1l-0.4,1.8h10.1
			c2.2,0,2.3,0.8,1.9,2.4l-3.9,18.3c-0.2,1.1,0.1,1.9,2,1.9c0.1,0,4.1,0,4.5,0l0.5-1.8l-4,0C95.4,28.7,95.1,28.6,95.3,28.2z
			 M73.7,5.6h-2.3c-1,1.3-3,3.4-4.2,4h-1.5c0.3-0.5,2-4,2-4h-2.4l-2,3.9c-1.4-1-2-2.6-2.5-3.9h-2.6c0.3,0.9,0.9,2.9,2,3.9h-3.5
			l-0.5,1.9H62c-0.4,0.6-0.7,1.1-1.2,1.7H55l-0.5,1.9h4.6c-1.5,1.5-3.5,2.8-5.1,2.8l-0.5,2.1c0,0,2.5-0.5,3.7-1.1l-0.7,3.3
			c-0.2,1,0,1.7,1,1.7l9.7,0c0.8,0,1,0.5,0.8,1.4l-0.6,2.1c-0.3,1-0.8,1.6-1.6,1.6h-8.7l-0.6,1.8h8.9c2,0,3.5-0.2,4-2.4l1.1-4.8
			c0.2-0.7-0.5-1.3-1.1-1.3l0.6-3.1c0.5,0.4,1.1,0.7,1.7,0.9l0.7-1.5c-1.3-0.6-2.8-2-3.2-3.3H73l0.5-1.9h-10l1-1.6h8.1l0.4-1.9h-2.8
			C71.6,8.3,72.7,7,73.7,5.6z M67.8,20l-0.4,1.8h-8.7l0.7-3H67C68.2,18.8,67.9,19.7,67.8,20z M67,15c0.1,0.4,0.8,1.7,1.1,1.9h-8
			c0.7-0.6,1.5-1.4,1.9-1.9L67,15z M77.2,28.4l2.8-13.3c0.2-1.1-0.4-2.2-1.7-2.2H75l-0.4,1.9h2.5c0.6,0,0.7,0.4,0.6,0.8l-2.7,12.9
			c-0.3,1.5,0.5,2,2.2,2h3.7l0.5-1.7h-3.7C77.3,28.8,77.1,28.7,77.2,28.4z M66.8,25.4H53.7l-0.4,1.5h13.1L66.8,25.4z"/>
	</g>
</g>
</svg>
